# xmcd CD database file
#
# Track frame offsets:
#	150
#	19984
#	41431
#	62110
#	81684
#	99900
#	116561
#	134554
#	148936
#	167997
#	188526
#	205747
#
# Disc length: 3018 seconds
#
# Revision: 2
# Processed by: cddbd v1.5.2PL0 Copyright (c) Steve Scherf et al.
# Submitted via: CDex 1.70beta2
#
DISCID=af0bc80c
DTITLE=Raul Malo - You're Only Lonely
DYEAR=2006
DGENRE=Country
TTITLE0=You're Only Lonely
TTITLE1=Angel Flying Too Close To The Ground
TTITLE2=Feels Like Home
TTITLE3=So Sad
TTITLE4=At Last
TTITLE5=Games That Lovers Play
TTITLE6=For You
TTITLE7=Secret Heart
TTITLE8=Run To Me
TTITLE9=Tomorrow Night
TTITLE10=Remember
TTITLE11=Feels Like Home (Duet with Martina McBride)
EXTD=YEAR: 2006
EXTT0=
EXTT1=
EXTT2=
EXTT3=
EXTT4=
EXTT5=
EXTT6=
EXTT7=
EXTT8=
EXTT9=
EXTT10=
EXTT11=
PLAYORDER=
